<?xml version="1.0" encoding="utf-8"?>
<!-- Generator: Adobe Illustrator 19.1.0, SVG Export Plug-In . SVG Version: 6.00 Build 0)  -->
<svg version="1.1" id="Layer_1" xmlns="http://www.w3.org/2000/svg" xmlns:xlink="http://www.w3.org/1999/xlink" x="0px" y="0px"
	 viewBox="84 -174 960 960" style="enable-background:new 84 -174 960 960;" xml:space="preserve">
<style type="text/css">
	.st0{fill:#D7DE27;}
	.st1{fill:#D91F5D;}
	.st2{fill:#1D76BB;}
	.st3{fill:#90298D;}
	.st4{fill:#28A8E0;}
	.st5{fill:#059347;}
	.st6{fill:#F69321;}
	.st7{fill:#3BB34A;}
	.st8{fill:#F15B2A;}
	.st9{fill:#FFFFFF;}
</style>
<g>
	<g>
		<g>
			<path class="st0" d="M719.4,65.3L684.8,82c-0.7-1.5-2.3-2.6-4.1-2.6c-1.1,0-2.2,0.4-2.9,1.1l-46.3-54.2L719.4,65.3z"/>
			<path class="st1" d="M702,143.4c-1.4,0.5-2.7,1.5-3.7,2.7l-71.2-60.5l49.3-0.5c0.5,1.9,2.3,3.3,4.4,3.3c0.2,0,0.5,0,0.7-0.1
				L702,143.4z"/>
			<path class="st2" d="M764,160.9 731.2,115.1 758,111.8 759.3,113.6z"/>
			<path class="st3" d="M697.6,146.9c-0.5,0.9-1,1.9-1.3,3l-85.5-28.6l15-35.4L697.6,146.9z"/>
			<path class="st4" d="M713.3,156.3c0.6-1.3,1-2.7,1-4.2c0-2.4-0.9-4.5-2.4-6.1l18.3-30.3l33.9,47.4l1.6,16.5L713.3,156.3z"/>
			<path class="st5" d="M729.6,114.8l-18.4,30.4c-1.6-1.4-3.7-2.3-6-2.3c-0.7,0-1.5,0.1-2.2,0.3l-20.6-55.1c0.5-0.2,1-0.5,1.5-0.9
				L729.6,114.8z"/>
			<path class="st2" d="M766.6,187.1l-6.3,7.2l-85.9,13.9l28.6-47.3c0.7,0.2,1.5,0.3,2.3,0.3c1.1,0,2.2-0.2,3.1-0.6l5.4,14.5
				c-1.7,0.6-2.8,2.2-2.8,4c0,2.4,1.9,4.3,4.2,4.3c2.4,0,4.4-1.9,4.4-4.3s-1.9-4.3-4.4-4.3c-0.1,0-0.3,0-0.4,0l-5.5-14.6l0,0
				c1.4-0.7,2.5-1.7,3.4-2.9l53.2,23.4L766.6,187.1z"/>
			<path class="st6" d="M569.9,86.8l-80.6,46.1c-2-3.5-5.8-5.9-10.2-5.9c-6.4,0-11.6,5.1-11.8,11.6c-0.6-0.3-1.4-0.5-2.2-0.6
				l-4.3-83.6c7.2-1.9,12.4-8.5,12.4-16.2c0-2.2-0.4-4.2-1.1-6.1l97.3,51.3c-0.1,0.4-0.1,0.8-0.1,1.2
				C569.4,85.3,569.5,86.1,569.9,86.8z"/>
			<path class="st7" d="M584.9,161.1c0,0.6,0,1.2,0.1,1.7l-74.9,41.7c-1.5-3-4.7-5.1-8.4-5.1c-5.2,0-9.4,4.2-9.5,9.4l-69.1,3
				c-1-1.9-2.2-3.6-3.7-5l42.1-55.5c1,0.5,2,0.7,3.1,0.7c3.1,0,5.7-2,6.7-4.8c2.1,2,4.9,3.1,8,3.1c5.8,0,10.6-4.2,11.5-9.7L586,157
				C585.2,158.3,584.9,159.7,584.9,161.1z"/>
			<path class="st7" d="M757.2,110.9l-26.7,3.2l-0.2-0.4l-0.1,0.2l-45.6-27.6c0.4-0.7,0.7-1.5,0.7-2.4c0-0.3,0-0.7-0.1-1l35.5-17.1
				l2.4,1.1L757.2,110.9z"/>
			<path class="st5" d="M677.1,81.2c-0.5,0.7-0.9,1.7-0.9,2.7v0.2l-50.5,0.5h-45.5c0-2.1-1.2-3.9-2.9-4.7L611,17l18.4,8.2
				L677.1,81.2z"/>
			<path class="st0" d="M460.6,150.8l-41.9,55.4c-3.9-3.6-9.2-5.8-14.9-5.8c-8.9,0-16.5,5.2-20,12.7l-18.2-13.7l93.7-50
				C459.5,150,460,150.4,460.6,150.8z"/>
			<path class="st0" d="M464.2,138c-3,0.1-5.5,2.2-6.4,4.9l-63.2-20.1c1-1.9,1.5-4.1,1.5-6.4c0-5.7-3.2-10.6-7.9-13L441.5,46
				c2.8,5.4,8.5,9,15,9c1.1,0,2.3-0.1,3.4-0.3L464.2,138z"/>
			<path class="st3" d="M556.1,262.2l-11,24.7l-18.9,16.3l-13.5,6.2c0,0-20.9-15.7-25.2-21.1l14.5-70c3.1-0.1,6-1.7,7.6-4.2l38,28.1
				c-1.6,2.1-2.5,4.7-2.5,7.5C545.1,256.1,549.8,261.4,556.1,262.2z"/>
			<path class="st1" d="M603.5,249.3c0,4.2,1.6,8,4.2,10.9l-30.8-4.6l-7.3-2.2c0.4-1.2,0.5-2.4,0.5-3.6c0-7-5.6-12.6-12.6-12.6
				c-3.8,0-7.2,1.7-9.5,4.3l-38.1-28.2c0.7-1.3,1.1-2.8,1.1-4.4c0-1.2-0.2-2.4-0.6-3.4l74.7-41.6c1.2,3.5,4.4,6,8.3,6
				c0.9,0,1.7-0.1,2.5-0.3l19.1,64.2C608.4,235.7,603.5,241.9,603.5,249.3z"/>
			<path class="st3" d="M702,160.5l-34.1,56.4c-1.4-4.4-5.5-7.5-10.4-7.5c-3,0-5.6,1.1-7.5,3l0,0L600,167c1.5-1.5,2.3-3.6,2.3-5.8
				c0-1-0.2-1.9-0.5-2.8l94.7-3.6C697.4,157.4,699.4,159.5,702,160.5z"/>
			<path class="st8" d="M592.5,152.5c-2.6,0.3-4.7,1.7-6.1,3.7l-95.6-16.5c0-0.3,0-0.6,0-1c0-1.7-0.4-3.4-1.1-4.9l80.6-46.1
				c1,1.4,2.6,2.3,4.4,2.3L592.5,152.5z"/>
			<path class="st4" d="M759.1,195.5 734.5,223.4 672.3,219.3 668.4,218.1 673.6,209.4z"/>
			<path class="st3" d="M653.6,231.7l-17.7,15.1c-1.2-7.8-7.9-13.8-16.1-13.8c-1.2,0-2.5,0.1-3.6,0.4l-19.1-64.2
				c0.8-0.4,1.6-0.8,2.2-1.5l49.4,45l0.2,0.8c-1.6,1.9-2.5,4.3-2.5,7c0,4.7,2.9,8.7,7,10.3l0,0L653.6,231.7z"/>
			<path class="st4" d="M494,214.3l-77.9,26.6c5.9-3.9,9.8-10.7,9.8-18.4c0-3.5-0.8-6.8-2.3-9.7l68.7-3
				C492.5,211.5,493,213,494,214.3z"/>
			<path class="st4" d="M501,218.3l-14.5,69.4c-2.9,3.6-15.3,14.5-15.3,14.5l-23.8-5.2l-5-10.1l53-71
				C496.9,217.3,498.8,218.1,501,218.3z"/>
			<path class="st1" d="M696.3,153.7l-94.9,3.6c-0.9-1.8-2.3-3.3-4.1-4.1l13.1-31l85.8,28.7c-0.1,0.4-0.1,0.7-0.1,1.1
				C696.1,152.6,696.1,153.2,696.3,153.7z"/>
			<path class="st6" d="M624.9,85.6l-28.6,67.3c-0.9-0.3-1.8-0.5-2.8-0.5l-17.7-62.5c2.2-0.4,3.9-2.1,4.3-4.3L624.9,85.6L624.9,85.6
				z"/>
			<path class="st5" d="M458.5,148.6l-94,50.1l-3.1-2.3l15.5-66.2c1.5,0.5,3,0.7,4.6,0.7c5.4,0,10.1-2.9,12.6-7.3l63.5,20.1
				c0,0.4,0,0.7,0,1.1C457.5,146.3,457.8,147.6,458.5,148.6z"/>
			<path class="st0" d="M610.1,16.6l-33.7,62.8c-0.5-0.2-1-0.2-1.6-0.2c-2.2,0-4.1,1.3-4.9,3.2l-96.5-50.9l135.7-15.3L610.1,16.6z"
				/>
			<path class="st2" d="M494.8,215.1 494.7,215.2 441,287 428.8,290.7 410.1,264.8 406,245.5 494.6,215.1z"/>
		</g>
		<circle class="st2" cx="406" cy="222.2" r="12.3"/>
		<circle class="st8" cx="479.5" cy="138.6" r="6.6"/>
		<circle class="st5" cx="381.4" cy="116.6" r="9"/>
		<circle class="st6" cx="456.6" cy="38.5" r="10.8"/>
		<circle class="st3" cx="620.1" cy="249.3" r="10.9"/>
		<circle class="st1" cx="558" cy="249.9" r="8.9"/>
		<circle class="st1" cx="657.3" cy="220.2" r="7"/>
		<circle class="st7" cx="593.6" cy="161" r="6"/>
		<circle class="st3" cx="705.3" cy="152" r="6.6"/>
		<circle class="st5" cx="680.8" cy="84.1" r="2.6"/>
		<circle class="st5" cx="464.2" cy="145.1" r="4.3"/>
		<circle class="st8" cx="574.5" cy="84.6" r="3.1"/>
		<circle class="st2" cx="501.6" cy="208.9" r="5.8"/>
		<circle class="st4" cx="715.4" cy="179.4" r="2.4"/>
	</g>
	<g>
		<g>
			<path class="st9" d="M308.2,490c-6.9,3.8-15.8,5.7-26.7,5.7c-8.2,0-15.9-1.5-22.9-4.5c-7.1-3-13.1-7.1-18.2-12.2
				c-5.1-5.1-9-11.2-11.9-18.1c-2.9-6.9-4.3-14.3-4.3-22.1v-0.4c0-7.8,1.4-15.2,4.3-22.2c2.9-7,6.9-13.1,11.9-18.3
				c5.1-5.2,11.1-9.3,18.2-12.3c7.1-3,14.8-4.5,23.3-4.5c10.4,0,19.1,1.6,25.9,4.9c6.9,3.3,12.9,7.8,18.1,13.6l-19.1,20.6
				c-3.6-3.7-7.2-6.6-11-8.8c-3.8-2.2-8.5-3.3-14.1-3.3c-4,0-7.6,0.8-10.8,2.4c-3.2,1.6-6,3.7-8.4,6.5c-2.4,2.7-4.3,5.9-5.6,9.6
				c-1.3,3.6-2,7.5-2,11.6v0.4c0,4.3,0.6,8.2,2,11.9c1.3,3.7,3.2,6.9,5.7,9.7c2.5,2.7,5.4,4.9,8.8,6.5s7.3,2.4,11.5,2.4
				c5.2,0,9.8-1.1,13.7-3.2c3.9-2.1,7.8-5,11.6-8.5l18.3,18.5C321.2,481.4,315.1,486.2,308.2,490z"/>
			<path class="st9" d="M419,493.1v-11.9c-3.8,4.3-8.4,7.6-13.8,10.2c-5.3,2.5-11.9,3.8-19.5,3.8c-5.2,0-10.1-0.7-14.7-2.2
				c-4.6-1.4-8.6-3.6-12-6.5s-6.1-6.4-8.1-10.6c-2-4.2-3-9-3-14.5V461c0-6,1.1-11.2,3.3-15.6c2.2-4.4,5.2-8,9.2-10.9
				c3.9-2.9,8.6-5,14-6.5c5.4-1.4,11.4-2.2,18-2.2c5.6,0,10.5,0.4,14.7,1.2s8.3,1.9,12.2,3.3v-1.9c0-6.6-2-11.6-6-15
				s-9.9-5.1-17.7-5.1c-6,0-11.3,0.5-15.9,1.5s-9.4,2.5-14.5,4.4l-7.8-23.9c6-2.6,12.3-4.7,18.9-6.4c6.6-1.6,14.5-2.5,23.9-2.5
				c17.1,0,29.6,4.2,37.4,12.5c7.8,8.4,11.7,20,11.7,35v64H419V493.1z M419.6,448.7c-2.7-1.2-5.8-2.2-9.2-3c-3.4-0.8-7-1.1-10.8-1.1
				c-6.7,0-12,1.3-15.8,3.9c-3.8,2.6-5.8,6.4-5.8,11.3v0.4c0,4.3,1.6,7.5,4.7,9.9c3.2,2.3,7.3,3.5,12.3,3.5c7.4,0,13.3-1.8,17.8-5.3
				c4.5-3.6,6.7-8.2,6.7-14L419.6,448.7L419.6,448.7z"/>
			<path class="st9" d="M621,493.1v-61.3c0-7.4-1.6-13-4.7-16.7c-3.2-3.8-7.7-5.6-13.6-5.6c-5.9,0-10.5,1.9-13.9,5.6
				c-3.4,3.8-5,9.3-5,16.7v61.3h-31.3v-61.3c0-7.4-1.6-13-4.7-16.7c-3.2-3.8-7.7-5.6-13.6-5.6s-10.5,1.9-13.9,5.6
				c-3.4,3.8-5,9.3-5,16.7v61.3H484V382.9h31.3v15.8c1.8-2.3,3.7-4.6,5.9-6.7c2.1-2.1,4.5-4,7.1-5.7s5.5-3,8.7-3.9
				c3.2-1,6.8-1.5,10.8-1.5c7.3,0,13.5,1.5,18.8,4.6c5.3,3,9.4,7.4,12.2,13c4.8-5.8,10.1-10.2,16-13.2c5.9-3,12.6-4.5,20.2-4.5
				c11.7,0,20.8,3.4,27.4,10.3c6.6,6.9,9.9,16.9,9.9,30.2v71.8L621,493.1L621,493.1z"/>
			<path class="st9" d="M756,493.1v-15.8c-1.8,2.3-3.7,4.6-5.9,6.7c-2.1,2.1-4.5,4-7.1,5.7s-5.5,3-8.6,3.9c-3.2,1-6.7,1.5-10.7,1.5
				c-11.9,0-21.1-3.6-27.7-10.9c-6.5-7.3-9.8-17.3-9.8-30v-71.4h31.3v61.3c0,7.4,1.6,13,4.9,16.7c3.3,3.8,8,5.6,14,5.6
				s10.8-1.9,14.3-5.6c3.5-3.8,5.2-9.3,5.2-16.7v-61.3h31.3V493L756,493.1L756,493.1z"/>
			<path class="st9" d="M900.7,475.6c-2.1,4.5-5.1,8.1-8.9,11c-3.8,2.9-8.3,5-13.5,6.5c-5.1,1.4-10.7,2.2-16.6,2.2
				c-7.8,0-15.8-1.3-24-4s-15.9-6.9-23.3-12.6l13.4-20.6c6,4.4,12,7.7,18,9.9s11.5,3.3,16.8,3.3c4.5,0,7.8-0.8,10-2.3
				c2.1-1.5,3.2-3.5,3.2-6v-0.4c0-1.6-0.6-3.1-1.9-4.3c-1.2-1.2-2.9-2.3-5-3.2s-4.6-1.7-7.3-2.6c-2.7-0.8-5.6-1.7-8.6-2.7
				c-3.8-1.1-7.7-2.4-11.6-4c-3.9-1.6-7.4-3.6-10.6-6.2c-3.2-2.5-5.7-5.7-7.7-9.4s-3-8.2-3-13.6v-0.4c0-5.6,1.1-10.6,3.2-14.9
				c2.1-4.3,5-8,8.6-11s7.9-5.3,12.8-6.8c4.9-1.5,10.1-2.3,15.7-2.3c7,0,14.1,1.1,21.3,3.4c7.2,2.3,13.8,5.4,19.8,9.4l-11.9,21.6
				c-5.5-3.2-10.8-5.7-16-7.5c-5.2-1.9-9.8-2.8-13.8-2.8c-3.8,0-6.7,0.7-8.6,2.2c-1.9,1.4-2.9,3.3-2.9,5.5v0.4c0,1.5,0.6,2.8,1.9,4
				c1.2,1.2,2.9,2.3,4.9,3.3c2.1,1,4.4,2,7.1,3c2.7,1,5.5,1.9,8.5,2.9c3.8,1.2,7.7,2.7,11.7,4.4s7.5,3.8,10.7,6.3s5.8,5.5,7.8,9
				c2.1,3.6,3.1,7.9,3.1,13v0.4C903.9,465.8,902.8,471.1,900.7,475.6z"/>
		</g>
		<g>
			<path class="st9" d="M428.7,593.3c-3.9,1.7-8.4,2.6-13.5,2.6c-4.3,0-8.3-0.7-11.8-2.1c-3.6-1.4-6.6-3.4-9.2-5.9s-4.5-5.5-6-9
				c-1.4-3.5-2.1-7.3-2.1-11.4v-0.2c0-4,0.7-7.7,2.2-11.1c1.4-3.5,3.5-6.5,6.1-9.1s5.6-4.7,9.2-6.2c3.5-1.5,7.4-2.3,11.6-2.3
				c2.5,0,4.7,0.2,6.8,0.5c2,0.3,3.9,0.8,5.7,1.5c1.7,0.6,3.4,1.4,4.9,2.4s3,2,4.4,3.2l-7.7,9.3c-1.1-0.9-2.1-1.7-3.2-2.4
				s-2.1-1.3-3.3-1.7c-1.1-0.5-2.4-0.8-3.7-1.1c-1.3-0.3-2.8-0.4-4.4-0.4c-2.2,0-4.3,0.5-6.2,1.4c-1.9,0.9-3.6,2.2-5.1,3.7
				c-1.5,1.6-2.6,3.4-3.4,5.5s-1.2,4.3-1.2,6.7v0.2c0,2.5,0.4,4.9,1.2,7c0.8,2.1,2,4,3.5,5.6s3.3,2.8,5.3,3.7s4.3,1.3,6.8,1.3
				c4.5,0,8.4-1.1,11.5-3.3v-8h-12.3V563h24v24C436,589.5,432.6,591.5,428.7,593.3z"/>
			<path class="st9" d="M500,594.9l-11.9-17.7h-9.6v17.7h-12.2v-55.4h25.3c6.6,0,11.7,1.6,15.4,4.8c3.7,3.2,5.5,7.7,5.5,13.4v0.2
				c0,4.5-1.1,8.1-3.3,11s-5,4.9-8.6,6.2l13.5,19.8H500z M500.2,558.4c0-2.6-0.8-4.6-2.5-5.9c-1.7-1.3-4-2-7-2h-12.1v15.9h12.3
				c3,0,5.3-0.7,6.9-2.1c1.6-1.4,2.4-3.3,2.4-5.7L500.2,558.4L500.2,558.4z"/>
			<path class="st9" d="M593.6,578.3c-1.5,3.5-3.5,6.5-6.1,9.1s-5.7,4.7-9.3,6.2c-3.6,1.5-7.6,2.3-11.8,2.3s-8.2-0.8-11.8-2.3
				c-3.6-1.5-6.7-3.5-9.3-6.1s-4.6-5.6-6.1-9c-1.5-3.5-2.2-7.2-2.2-11.1v-0.2c0-4,0.7-7.7,2.2-11.1c1.5-3.5,3.5-6.5,6.1-9.1
				s5.7-4.7,9.3-6.2c3.6-1.5,7.6-2.3,11.8-2.3s8.2,0.8,11.8,2.3s6.7,3.5,9.3,6.1s4.6,5.6,6.1,9c1.4,3.5,2.2,7.2,2.2,11.1v0.2
				C595.8,571.1,595.1,574.8,593.6,578.3z M583.1,567.2c0-2.4-0.4-4.6-1.2-6.7c-0.8-2.1-2-4-3.5-5.5c-1.5-1.6-3.3-2.8-5.3-3.8
				s-4.3-1.4-6.7-1.4c-2.5,0-4.7,0.4-6.8,1.3c-2,0.9-3.8,2.1-5.2,3.7c-1.5,1.6-2.6,3.4-3.4,5.5s-1.2,4.3-1.2,6.7v0.2
				c0,2.4,0.4,4.6,1.2,6.7c0.8,2.1,2,4,3.5,5.5c1.5,1.6,3.3,2.8,5.3,3.8c2,0.9,4.3,1.4,6.8,1.4c2.4,0,4.7-0.4,6.7-1.3
				c2.1-0.9,3.8-2.1,5.3-3.7s2.6-3.4,3.4-5.5c0.8-2.1,1.2-4.3,1.2-6.7L583.1,567.2L583.1,567.2z"/>
			<path class="st9" d="M668.1,581.7c-1.1,3.1-2.8,5.7-4.9,7.8c-2.1,2.1-4.7,3.6-7.7,4.7c-3,1-6.4,1.5-10,1.5
				c-7.4,0-13.3-2.1-17.6-6.2c-4.3-4.1-6.4-10.3-6.4-18.4v-31.6h12.2v31.3c0,4.5,1.1,8,3.2,10.2c2.1,2.3,5,3.4,8.8,3.4
				c3.7,0,6.7-1.1,8.8-3.3s3.2-5.5,3.2-10v-31.7h12.2v31.2C669.8,575,669.3,578.6,668.1,581.7z"/>
			<path class="st9" d="M740.2,567.3c-1.2,2.4-2.8,4.5-4.8,6.1s-4.4,2.9-7.1,3.7c-2.7,0.8-5.6,1.2-8.7,1.2h-9.3v16.6h-12.2v-55.4
				h22.6c3.3,0,6.3,0.5,8.9,1.4c2.6,0.9,4.8,2.2,6.6,3.9s3.2,3.7,4.2,6.1c1,2.3,1.5,4.9,1.5,7.8v0.2
				C741.9,562,741.3,564.8,740.2,567.3z M729.6,558.9c0-2.7-0.9-4.8-2.6-6.2c-1.8-1.4-4.2-2.1-7.2-2.1h-9.4v16.9h9.7
				c3.1,0,5.4-0.8,7.1-2.4s2.5-3.6,2.5-6L729.6,558.9L729.6,558.9z"/>
		</g>
	</g>
</g>
</svg>
