<?xml version="1.0" encoding="UTF-8"?>
<svg width="207px" height="78px" viewBox="0 0 207 78" version="1.1" xmlns="http://www.w3.org/2000/svg" xmlns:xlink="http://www.w3.org/1999/xlink">
    <!-- Generator: Sketch 55.2 (78181) - https://sketchapp.com -->
    <title>Artboard</title>
    <desc>Created with Sketch.</desc>
    <g id="Artboard" stroke="none" stroke-width="1" fill="none" fill-rule="evenodd">
        <path d="M29.5639098,3.63165399 L29.5639098,10.0594106 C26.4057606,7.43550653 23.1382195,6.12357414 19.7611887,6.12357414 C16.040201,6.12357414 12.9055504,7.45103235 10.3571429,10.1059886 C7.79310092,12.7454188 6.51109918,15.9747908 6.51109918,19.7942015 C6.51109918,23.5670341 7.79310092,26.7498286 10.3571429,29.3426806 C12.9211848,31.9355326 16.0636525,33.2319392 19.7846402,33.2319392 C21.7076716,33.2319392 23.3414421,32.9214226 24.6860007,32.3003802 C25.436452,31.989859 26.2142519,31.5706617 27.0194236,31.0427757 C27.8245953,30.5148896 28.6727489,29.8783307 29.5639098,29.1330798 L29.5639098,35.6772814 C26.4370294,37.4317261 23.1538542,38.3089354 19.7142857,38.3089354 C14.5392986,38.3089354 10.1226463,36.5157023 6.4641962,32.9291825 C2.82138052,29.3116106 1,24.9488532 1,19.8407795 C1,15.2605918 2.52433134,11.1772993 5.57303974,7.59077947 C9.32529624,3.19690452 14.1797053,1 20.1364125,1 C23.3883681,1 26.5308358,1.87720923 29.5639098,3.63165399 Z M52.2883996,14.973384 L57.5884354,14.973384 L57.5884354,37.6568441 L52.2883996,37.6568441 L52.2883996,35.2813688 C50.1152177,37.2997566 47.7779096,38.3089354 45.2764053,38.3089354 C42.1182561,38.3089354 39.5073501,37.17555 37.443609,34.9087452 C35.3955024,32.5953623 34.3714644,29.7075585 34.3714644,26.2452471 C34.3714644,22.84504 35.3955024,20.0115766 37.443609,17.7447719 C39.4917157,15.4779671 42.0557192,14.3445817 45.1356964,14.3445817 C47.7935447,14.3445817 50.1777553,15.4313896 52.2883996,17.605038 L52.2883996,14.973384 Z M39.7653061,26.2452471 C39.7653061,28.4188955 40.3515874,30.1888398 41.5241676,31.5551331 C42.7280165,32.9369524 44.2445308,33.6278517 46.0737558,33.6278517 C48.0280561,33.6278517 49.607107,32.9602412 50.810956,31.625 C52.0148049,30.2431807 52.6167204,28.4887622 52.6167204,26.361692 C52.6167204,24.2346218 52.0148049,22.4802034 50.810956,21.098384 C49.607107,19.7476168 48.0436902,19.0722433 46.1206588,19.0722433 C44.3070681,19.0722433 42.7905539,19.7553797 41.5710705,21.121673 C40.3672216,22.5034923 39.7653061,24.2113333 39.7653061,26.2452471 Z M77.5221984,18.8393536 L73.160222,21.144962 C72.4723083,19.7476166 71.6202462,19.0489544 70.60401,19.0489544 C70.1193436,19.0489544 69.7050364,19.2080941 69.3610813,19.5263783 C69.0171244,19.8446626 68.8451486,20.2522155 68.8451486,20.7490494 C68.8451486,21.6185088 69.8613695,22.4801922 71.8938417,23.3341255 C74.6923997,24.5296321 76.5763169,25.6319658 77.5456498,26.6411597 C78.5149828,27.6503536 78.999642,29.0088635 78.999642,30.71673 C78.999642,32.9059045 78.1866652,34.7379521 76.5606874,36.2129278 C74.9816128,37.6102731 73.0742444,38.3089354 70.8385249,38.3089354 C67.0080964,38.3089354 64.2955683,36.453599 62.7008593,32.7428707 L67.2035446,30.6701521 C67.8289207,31.7569763 68.3057628,32.4478756 68.6340852,32.7428707 C69.2750957,33.332861 70.0411699,33.6278517 70.9323308,33.6278517 C72.7146527,33.6278517 73.6058002,32.8205087 73.6058002,31.2057985 C73.6058002,30.2742349 72.9178968,29.4047886 71.5420695,28.5974335 C71.0104998,28.3334904 70.4789381,28.0773143 69.9473684,27.8288973 C69.4157988,27.5804804 68.87642,27.3243042 68.3292159,27.0603612 C66.7970445,26.3151103 65.7182869,25.5698706 65.0929108,24.8246198 C64.2955563,23.8775301 63.8968851,22.6587527 63.8968851,21.168251 C63.8968851,19.1964413 64.5769714,17.5662295 65.9371643,16.2775665 C67.3286261,14.9889036 69.0171162,14.3445817 71.0026853,14.3445817 C73.9263185,14.3445817 76.0994678,15.8428241 77.5221984,18.8393536 Z M104.53831,27.5494297 L88.1691729,27.5494297 C88.3098826,29.4125568 88.9196151,30.8952733 89.9983888,31.9976236 C91.0771626,33.0844478 92.4607864,33.6278517 94.1493018,33.6278517 C95.4625916,33.6278517 96.5491662,33.3173352 97.4090584,32.6962928 C98.2533161,32.0752504 99.2148174,30.9263392 100.293591,29.2495247 L104.749373,31.7181559 C104.06146,32.8826104 103.334471,33.8801448 102.568385,34.710789 C101.8023,35.5414332 100.981506,36.2245696 100.105979,36.7602186 C99.2304527,37.2958677 98.2845856,37.6878948 97.2683494,37.9363118 C96.2521133,38.1847287 95.1499045,38.3089354 93.9616899,38.3089354 C90.5533903,38.3089354 87.817411,37.2221275 85.7536699,35.0484791 C83.6899288,32.8593046 82.6580738,29.955975 82.6580738,26.338403 C82.6580738,22.7518832 83.6586605,19.8485536 85.6598639,17.628327 C87.6767018,15.4391526 90.3501445,14.3445817 93.6802721,14.3445817 C97.0416686,14.3445817 99.699477,15.4081009 101.653777,17.5351711 C103.592443,19.6467152 104.561762,22.5733336 104.561762,26.3151141 L104.53831,27.5494297 Z M99.1210168,23.2642586 C98.3861999,20.4695678 96.6117219,19.0722433 93.7975295,19.0722433 C93.1565191,19.0722433 92.5546036,19.1692798 91.9917651,19.3633555 C91.4289267,19.5574313 90.9169077,19.8368961 90.4556928,20.2017586 C89.9944779,20.566621 89.5997152,21.0052256 89.2713928,21.5175856 C88.9430703,22.0299455 88.6929236,22.612164 88.5209452,23.2642586 L99.1210168,23.2642586 Z M116.68618,33.4415399 L106.414429,14.973384 L112.535267,14.973384 L119.52381,28.0152091 L126.043323,14.973384 L132,14.973384 L113.801647,50 L107.774615,50 L116.68618,33.4415399 Z" id="Casey" fill="#777777" fill-rule="nonzero"></path>
        <path d="M78.4510114,54.449039 L94.0320141,54.449039 L94.0320141,40.3779849 L99.4830255,40.3779849 L99.4830255,76.3476995 L94.0320141,76.3476995 L94.0320141,59.550961 L78.4510114,59.550961 L78.4510114,76.3476995 L73,76.3476995 L73,40.3779849 L78.4510114,40.3779849 L78.4510114,54.449039 Z M123.930695,53.6569598 L129.217942,53.6569598 L129.217942,76.3476995 L123.930695,76.3476995 L123.930695,73.9714619 C121.762757,75.9904974 119.431088,77 116.93562,77 C113.785091,77 111.180485,75.8662509 109.121724,73.5987187 C107.078559,71.2845934 106.056992,68.3958628 106.056992,64.9324403 C106.056992,61.531142 107.078559,58.6967692 109.121724,56.429237 C111.164889,54.1617048 113.722705,53.0279557 116.795251,53.0279557 C119.446686,53.0279557 121.825143,54.1151124 123.930695,56.2894584 L123.930695,53.6569598 Z M111.437819,64.9324403 C111.437819,67.1067863 112.022685,68.8772985 113.192436,70.2440303 C114.39338,71.6262931 115.906235,72.3174141 117.731047,72.3174141 C119.680631,72.3174141 121.255872,71.6495893 122.456816,70.3139196 C123.65776,68.9316568 124.258223,67.1766754 124.258223,65.0489225 C124.258223,62.9211697 123.65776,61.1661882 122.456816,59.7839255 C121.255872,58.4327248 119.696228,57.7571345 117.777836,57.7571345 C115.968622,57.7571345 114.455767,58.4404902 113.239226,59.8072219 C112.038282,61.1894847 111.437819,62.8978737 111.437819,64.9324403 Z M141.125945,37 L141.125945,56.2894584 C143.231497,54.1151124 145.617753,53.0279557 148.284785,53.0279557 C151.35733,53.0279557 153.915147,54.1694702 155.958311,56.4525335 C158.001476,58.7200657 159.023043,61.546673 159.023043,64.9324403 C159.023043,68.4269249 157.993678,71.3156554 155.934916,73.5987187 C153.891752,75.8662509 151.31054,77 148.191205,77 C145.555366,77 143.200304,75.9904974 141.125945,73.9714619 L141.125945,76.3476995 L135.862093,76.3476995 L135.862093,37 L141.125945,37 Z M153.642216,65.1654048 C153.642216,62.9910588 153.049552,61.2205465 151.864204,59.8538148 C150.66326,58.456021 149.158203,57.7571345 147.348989,57.7571345 C145.415001,57.7571345 143.83976,58.4327248 142.623219,59.7839255 C141.422275,61.1195951 140.821812,62.8590458 140.821812,65.0023296 C140.821812,67.2077377 141.414477,68.9704846 142.599824,70.2906232 C143.785172,71.6418239 145.344816,72.3174141 147.278804,72.3174141 C149.103615,72.3174141 150.61647,71.6418239 151.817414,70.2906232 C153.033955,68.9238914 153.642216,67.2155024 153.642216,65.1654048 Z M185.342304,66.2370414 L169.012665,66.2370414 C169.153035,68.1007665 169.761296,69.5839588 170.837467,70.6866628 C171.913638,71.7738358 173.293923,72.3174141 174.978364,72.3174141 C176.288485,72.3174141 177.372438,72.0067979 178.230255,71.3855562 C179.072476,70.7643145 180.031657,69.6150346 181.107828,67.937682 L185.552858,70.4071054 C184.866605,71.5719336 184.14137,72.5697881 183.377133,73.4006989 C182.612896,74.2316097 181.794082,74.9149653 180.920668,75.4507863 C180.047255,75.9866072 179.10367,76.3787602 178.089886,76.6272568 C177.076102,76.8757535 175.976552,77 174.791205,77 C171.391129,77 168.661752,75.9128433 166.60299,73.7384974 C164.544229,71.5486204 163.514864,68.644359 163.514864,65.0256261 C163.514864,61.4379553 164.513036,58.5336939 166.509411,56.3127548 C168.521382,54.1228778 171.188374,53.0279557 174.510466,53.0279557 C177.863752,53.0279557 180.515147,54.0918162 182.464732,56.219569 C184.39872,58.3317908 185.365699,61.2593484 185.365699,65.0023296 L185.342304,66.2370414 Z M179.938083,61.950495 C179.205039,59.1549074 177.434843,57.7571345 174.627441,57.7571345 C173.987977,57.7571345 173.387514,57.8542021 172.826033,58.0483401 C172.264553,58.2424782 171.75377,58.5220327 171.293668,58.8870122 C170.833566,59.2519917 170.439755,59.6907371 170.112225,60.2032615 C169.784695,60.7157859 169.535152,61.2981913 169.363588,61.950495 L179.938083,61.950495 Z M191.097449,53.6569598 L196.361302,53.6569598 L196.361302,55.6837507 C197.328296,54.674233 198.1861,53.9831119 198.934741,53.6103669 C199.698978,53.2220909 200.603571,53.0279557 201.648549,53.0279557 C203.036653,53.0279557 204.487122,53.4783492 206,54.3791497 L203.590325,59.1782178 C202.592138,58.4637899 201.61736,58.1065812 200.665963,58.1065812 C197.796174,58.1065812 196.361302,60.2653638 196.361302,64.5829936 L196.361302,76.3476995 L191.097449,76.3476995 L191.097449,53.6569598 Z" id="Haber" fill="#777777" fill-rule="nonzero"></path>
    </g>
</svg>