<?xml version="1.0" encoding="UTF-8" standalone="no"?>
<svg width="290px" height="290px" viewBox="0 0 290 290" version="1.1" xmlns="http://www.w3.org/2000/svg" xmlns:xlink="http://www.w3.org/1999/xlink">
    <!-- Generator: Sketch 3.7.1 (28215) - http://www.bohemiancoding.com/sketch -->
    <title>logosrc</title>
    <desc>Created with Sketch.</desc>
    <defs></defs>
    <g id="Page-1" stroke="none" stroke-width="1" fill="none" fill-rule="evenodd">
        <g id="logosrc" fill="#F5F5F5">
            <g id="Page-1">
                <g id="Artboard-6">
                    <path d="M201.011304,18.621723 L201.011304,64.104869 C178.786626,45.537985 155.792131,36.254682 132.027129,36.254682 C105.841617,36.254682 83.782305,45.647846 65.848531,64.434457 C47.804733,83.111204 38.782969,105.962412 38.782969,132.988764 C38.782969,159.685527 47.804733,182.207149 65.848531,200.554307 C83.892328,218.901465 106.006651,228.074906 132.192163,228.074906 C145.725011,228.074906 157.222259,225.877675 166.68425,221.483146 C171.965362,219.285882 177.438932,216.319619 183.105124,212.58427 C188.771317,208.84892 194.739984,204.344596 201.011304,199.071161 L201.011304,245.378277 C179.006672,257.792821 155.902156,264 131.697061,264 C95.279396,264 64.19832,251.310988 38.452901,225.932584 C12.817506,200.334454 0,169.463352 0,133.318352 C0,100.908702 10.727097,72.015108 32.181613,46.636704 C58.58717,15.545413 92.748848,0 134.667671,0 C157.552488,0 179.666811,6.207179 201.011304,18.621723 L201.011304,18.621723 L201.011304,18.621723 Z" id="C"></path>
                    <polygon id="Type-something" points="141.490283 135.352631 251.509717 135.352631 251.509715 18 290 18 290 244.292011 251.509715 244.292011 251.509717 171.382178 141.490283 171.382178 141.490283 290 103 290 103 83.834022 141.490282 83.834022"></polygon>
                </g>
            </g>
        </g>
    </g>
</svg>