<?xml version="1.0" encoding="UTF-8" standalone="no"?>
<svg width="290px" height="290px" viewBox="0 0 290 290" version="1.1" xmlns="http://www.w3.org/2000/svg" xmlns:xlink="http://www.w3.org/1999/xlink" xmlns:sketch="http://www.bohemiancoding.com/sketch/ns">
    <!-- Generator: Sketch 3.5.1 (25234) - http://www.bohemiancoding.com/sketch -->
    <title>Group</title>
    <desc>Created with Sketch.</desc>
    <defs></defs>
    <g id="Page-1" stroke="none" stroke-width="1" fill="none" fill-rule="evenodd" sketch:type="MSPage">
        <g id="Alt-Title-Page-Copy" sketch:type="MSArtboardGroup" transform="translate(-741.000000, -203.000000)" fill="#F28C80">
            <g id="Group" sketch:type="MSLayerGroup" transform="translate(741.000000, 203.000000)">
                <path d="M201.011304,18.6217228 L201.011304,64.1048689 C178.786626,45.5379846 155.792131,36.2546816 132.027129,36.2546816 C105.841617,36.2546816 83.7823052,45.6478461 65.8485305,64.4344569 C47.8047327,83.1112045 38.7829691,105.962412 38.7829691,132.988764 C38.7829691,159.685527 47.8047327,182.207149 65.8485305,200.554307 C83.8923283,218.901465 106.006651,228.074906 132.192163,228.074906 C145.725011,228.074906 157.222259,225.877675 166.68425,221.483146 C171.965362,219.285882 177.438932,216.319619 183.105124,212.58427 C188.771317,208.84892 194.739984,204.344596 201.011304,199.071161 L201.011304,245.378277 C179.006672,257.792821 155.902156,264 131.697061,264 C95.2793959,264 64.1983201,251.310988 38.4529013,225.932584 C12.8175056,200.334454 0,169.463352 0,133.318352 C0,100.908702 10.7270969,72.0151082 32.1816127,46.6367041 C58.5871705,15.5454126 92.7488484,0 134.667671,0 C157.552488,0 179.666811,6.20717888 201.011304,18.6217228 L201.011304,18.6217228 Z" id="C" sketch:type="MSShapeGroup"></path>
                <path d="M141.490283,135.352631 L251.509717,135.352631 L251.509715,18 L290,18 L290,244.292011 L251.509715,244.292011 L251.509717,171.382178 L141.490283,171.382178 L141.490283,290 L103,290 L103,83.834022 L141.490282,83.834022 L141.490283,135.352631 Z" id="Type-something" sketch:type="MSShapeGroup"></path>
            </g>
        </g>
    </g>
</svg>