<?xml version="1.0" encoding="utf-8"?>
<!-- Generator: Adobe Illustrator 19.1.0, SVG Export Plug-In . SVG Version: 6.00 Build 0)  -->
<svg version="1.1" id="Layer_1" xmlns="http://www.w3.org/2000/svg" xmlns:xlink="http://www.w3.org/1999/xlink" x="0px" y="0px"
	 viewBox="84 -174 960 960" style="enable-background:new 84 -174 960 960;" xml:space="preserve">
<style type="text/css">
	.st0{fill:#D7DE27;}
	.st1{fill:#D91F5D;}
	.st2{fill:#1D76BB;}
	.st3{fill:#90298D;}
	.st4{fill:#28A8E0;}
	.st5{fill:#059347;}
	.st6{fill:#F69321;}
	.st7{fill:#3BB34A;}
	.st8{fill:#F15B2A;}
	.st9{fill:#FFFFFF;}
</style>
<g>
	<g>
		<g>
			<path class="st0" d="M193.7,126.2l-6.3,3c-0.1-0.3-0.4-0.5-0.7-0.5c-0.2,0-0.4,0.1-0.5,0.2l-8.4-9.9L193.7,126.2z"/>
			<path class="st1" d="M190.5,140.4c-0.3,0.1-0.5,0.3-0.7,0.5l-13-11l9-0.1c0.1,0.3,0.4,0.6,0.8,0.6c0,0,0.1,0,0.1,0L190.5,140.4z"
				/>
			<path class="st2" d="M201.8,143.6l-6-8.3l4.9-0.6l0.2,0.3L201.8,143.6z"/>
			<path class="st3" d="M189.7,141.1c-0.1,0.2-0.2,0.3-0.2,0.5l-15.6-5.2l2.7-6.4L189.7,141.1z"/>
			<path class="st4" d="M192.6,142.8c0.1-0.2,0.2-0.5,0.2-0.8c0-0.4-0.2-0.8-0.4-1.1l3.3-5.5l6.2,8.6l0.3,3L192.6,142.8z"/>
			<path class="st5" d="M195.5,135.2l-3.3,5.5c-0.3-0.3-0.7-0.4-1.1-0.4c-0.1,0-0.3,0-0.4,0.1l-3.7-10c0.1,0,0.2-0.1,0.3-0.2
				L195.5,135.2z"/>
			<path class="st2" d="M202.3,148.4l-1.1,1.3l-15.6,2.5l5.2-8.6c0.1,0,0.3,0.1,0.4,0.1c0.2,0,0.4,0,0.6-0.1l1,2.6
				c-0.3,0.1-0.5,0.4-0.5,0.7c0,0.4,0.3,0.8,0.8,0.8c0.4,0,0.8-0.3,0.8-0.8s-0.3-0.8-0.8-0.8c0,0-0.1,0-0.1,0l-1-2.7l0,0
				c0.3-0.1,0.5-0.3,0.6-0.5l9.7,4.3L202.3,148.4z"/>
			<path class="st6" d="M166.5,130.1l-14.7,8.4c-0.4-0.6-1.1-1.1-1.9-1.1c-1.2,0-2.1,0.9-2.1,2.1c-0.1-0.1-0.3-0.1-0.4-0.1
				l-0.8-15.2c1.3-0.3,2.3-1.5,2.3-2.9c0-0.4-0.1-0.8-0.2-1.1l17.7,9.3c0,0.1,0,0.1,0,0.2C166.4,129.9,166.4,130,166.5,130.1z"/>
			<path class="st7" d="M169.2,143.7c0,0.1,0,0.2,0,0.3l-13.6,7.6c-0.3-0.5-0.9-0.9-1.5-0.9c-0.9,0-1.7,0.8-1.7,1.7l-12.6,0.5
				c-0.2-0.3-0.4-0.7-0.7-0.9l7.7-10.1c0.2,0.1,0.4,0.1,0.6,0.1c0.6,0,1-0.4,1.2-0.9c0.4,0.4,0.9,0.6,1.5,0.6c1.1,0,1.9-0.8,2.1-1.8
				l17.3,3C169.2,143.2,169.2,143.4,169.2,143.7z"/>
			<path class="st7" d="M200.5,134.5l-4.9,0.6l0-0.1l0,0l-8.3-5c0.1-0.1,0.1-0.3,0.1-0.4c0-0.1,0-0.1,0-0.2l6.5-3.1l0.4,0.2
				L200.5,134.5z"/>
			<path class="st5" d="M186,129.1c-0.1,0.1-0.2,0.3-0.2,0.5v0l-9.2,0.1h-8.3c0-0.4-0.2-0.7-0.5-0.9l6.1-11.4l3.3,1.5L186,129.1z"/>
			<path class="st0" d="M146.6,141.8l-7.6,10.1c-0.7-0.7-1.7-1.1-2.7-1.1c-1.6,0-3,0.9-3.6,2.3l-3.3-2.5l17.1-9.1
				C146.4,141.6,146.5,141.7,146.6,141.8z"/>
			<path class="st0" d="M147.2,139.5c-0.5,0-1,0.4-1.2,0.9l-11.5-3.7c0.2-0.3,0.3-0.7,0.3-1.2c0-1-0.6-1.9-1.4-2.4l9.7-10.4
				c0.5,1,1.5,1.6,2.7,1.6c0.2,0,0.4,0,0.6-0.1L147.2,139.5z"/>
			<path class="st3" d="M164,162.1l-2,4.5l-3.4,3l-2.5,1.1c0,0-3.8-2.9-4.6-3.8l2.6-12.7c0.6,0,1.1-0.3,1.4-0.8l6.9,5.1
				c-0.3,0.4-0.5,0.9-0.5,1.4C162,161,162.8,161.9,164,162.1z"/>
			<path class="st1" d="M172.6,159.7c0,0.8,0.3,1.5,0.8,2l-5.6-0.8l-1.3-0.4c0.1-0.2,0.1-0.4,0.1-0.7c0-1.3-1-2.3-2.3-2.3
				c-0.7,0-1.3,0.3-1.7,0.8l-6.9-5.1c0.1-0.2,0.2-0.5,0.2-0.8c0-0.2,0-0.4-0.1-0.6l13.6-7.6c0.2,0.6,0.8,1.1,1.5,1.1
				c0.2,0,0.3,0,0.5-0.1l3.5,11.7C173.5,157.2,172.6,158.4,172.6,159.7z"/>
			<path class="st3" d="M190.5,143.6l-6.2,10.3c-0.3-0.8-1-1.4-1.9-1.4c-0.5,0-1,0.2-1.4,0.5l0,0l-9.1-8.3c0.3-0.3,0.4-0.7,0.4-1.1
				c0-0.2,0-0.3-0.1-0.5l17.2-0.7C189.7,143,190,143.4,190.5,143.6z"/>
			<path class="st8" d="M170.6,142.1c-0.5,0.1-0.9,0.3-1.1,0.7l-17.4-3c0-0.1,0-0.1,0-0.2c0-0.3-0.1-0.6-0.2-0.9l14.7-8.4
				c0.2,0.3,0.5,0.4,0.8,0.4L170.6,142.1z"/>
			<path class="st4" d="M200.9,149.9l-4.5,5.1l-11.3-0.7l-0.7-0.2l0.9-1.6L200.9,149.9z"/>
			<path class="st3" d="M181.7,156.5l-3.2,2.7c-0.2-1.4-1.4-2.5-2.9-2.5c-0.2,0-0.5,0-0.7,0.1l-3.5-11.7c0.1-0.1,0.3-0.1,0.4-0.3
				l9,8.2l0,0.1c-0.3,0.3-0.5,0.8-0.5,1.3c0,0.9,0.5,1.6,1.3,1.9l0,0L181.7,156.5z"/>
			<path class="st4" d="M152.7,153.3l-14.2,4.8c1.1-0.7,1.8-1.9,1.8-3.3c0-0.6-0.1-1.2-0.4-1.8l12.5-0.5
				C152.4,152.8,152.5,153.1,152.7,153.3z"/>
			<path class="st4" d="M153.9,154.1l-2.6,12.6c-0.5,0.7-2.8,2.6-2.8,2.6l-4.3-0.9l-0.9-1.8l9.6-12.9
				C153.2,153.9,153.5,154,153.9,154.1z"/>
			<path class="st1" d="M189.5,142.3l-17.3,0.7c-0.2-0.3-0.4-0.6-0.7-0.7l2.4-5.6l15.6,5.2c0,0.1,0,0.1,0,0.2
				C189.4,142.1,189.4,142.2,189.5,142.3z"/>
			<path class="st6" d="M176.5,129.9l-5.2,12.2c-0.2-0.1-0.3-0.1-0.5-0.1l-3.2-11.4c0.4-0.1,0.7-0.4,0.8-0.8H176.5L176.5,129.9z"/>
			<path class="st5" d="M146.2,141.4l-17.1,9.1l-0.6-0.4l2.8-12c0.3,0.1,0.5,0.1,0.8,0.1c1,0,1.8-0.5,2.3-1.3l11.6,3.7
				c0,0.1,0,0.1,0,0.2C146,141,146.1,141.2,146.2,141.4z"/>
			<path class="st0" d="M173.8,117.4l-6.1,11.4c-0.1,0-0.2,0-0.3,0c-0.4,0-0.7,0.2-0.9,0.6l-17.6-9.3l24.7-2.8L173.8,117.4z"/>
			<path class="st2" d="M152.8,153.5L152.8,153.5l-9.8,13.1l-2.2,0.7l-3.4-4.7l-0.7-3.5L152.8,153.5L152.8,153.5z"/>
		</g>
		<circle class="st2" cx="136.6" cy="154.8" r="2.2"/>
		<circle class="st8" cx="150" cy="139.6" r="1.2"/>
		<circle class="st5" cx="132.2" cy="135.6" r="1.6"/>
		<circle class="st6" cx="145.8" cy="121.4" r="2"/>
		<circle class="st3" cx="175.6" cy="159.7" r="2"/>
		<circle class="st1" cx="164.3" cy="159.8" r="1.6"/>
		<circle class="st1" cx="182.4" cy="154.4" r="1.3"/>
		<circle class="st7" cx="170.8" cy="143.6" r="1.1"/>
		<circle class="st3" cx="191.1" cy="142" r="1.2"/>
		<circle class="st5" cx="186.6" cy="129.7" r="0.5"/>
		<circle class="st5" cx="147.2" cy="140.8" r="0.8"/>
		<circle class="st8" cx="167.3" cy="129.7" r="0.6"/>
		<circle class="st2" cx="154" cy="152.4" r="1.1"/>
		<circle class="st4" cx="192.9" cy="147" r="0.4"/>
	</g>
	<g>
		<g>
			<path class="st9" d="M118.8,203.5c-1.3,0.7-2.9,1-4.9,1c-1.5,0-2.9-0.3-4.2-0.8c-1.3-0.5-2.4-1.3-3.3-2.2s-1.6-2-2.2-3.3
				c-0.5-1.3-0.8-2.6-0.8-4v-0.1c0-1.4,0.3-2.8,0.8-4c0.5-1.3,1.3-2.4,2.2-3.3c0.9-0.9,2-1.7,3.3-2.2c1.3-0.5,2.7-0.8,4.2-0.8
				c1.9,0,3.5,0.3,4.7,0.9c1.3,0.6,2.3,1.4,3.3,2.5l-3.5,3.7c-0.7-0.7-1.3-1.2-2-1.6c-0.7-0.4-1.5-0.6-2.6-0.6c-0.7,0-1.4,0.1-2,0.4
				c-0.6,0.3-1.1,0.7-1.5,1.2c-0.4,0.5-0.8,1.1-1,1.7c-0.2,0.7-0.4,1.4-0.4,2.1v0.1c0,0.8,0.1,1.5,0.4,2.2c0.2,0.7,0.6,1.3,1,1.8
				c0.5,0.5,1,0.9,1.6,1.2c0.6,0.3,1.3,0.4,2.1,0.4c0.9,0,1.8-0.2,2.5-0.6c0.7-0.4,1.4-0.9,2.1-1.5l3.3,3.4
				C121.2,201.9,120.1,202.8,118.8,203.5z"/>
			<path class="st9" d="M139,204.1v-2.2c-0.7,0.8-1.5,1.4-2.5,1.9c-1,0.5-2.2,0.7-3.5,0.7c-0.9,0-1.8-0.1-2.7-0.4
				c-0.8-0.3-1.6-0.7-2.2-1.2c-0.6-0.5-1.1-1.2-1.5-1.9c-0.4-0.8-0.5-1.6-0.5-2.6v-0.1c0-1.1,0.2-2,0.6-2.8c0.4-0.8,0.9-1.5,1.7-2
				c0.7-0.5,1.6-0.9,2.5-1.2c1-0.3,2.1-0.4,3.3-0.4c1,0,1.9,0.1,2.7,0.2c0.8,0.1,1.5,0.3,2.2,0.6v-0.3c0-1.2-0.4-2.1-1.1-2.7
				c-0.7-0.6-1.8-0.9-3.2-0.9c-1.1,0-2.1,0.1-2.9,0.3c-0.8,0.2-1.7,0.5-2.6,0.8l-1.4-4.3c1.1-0.5,2.2-0.9,3.4-1.2
				c1.2-0.3,2.6-0.5,4.3-0.5c3.1,0,5.4,0.8,6.8,2.3c1.4,1.5,2.1,3.6,2.1,6.4V204L139,204.1L139,204.1z M139.1,196
				c-0.5-0.2-1.1-0.4-1.7-0.5s-1.3-0.2-2-0.2c-1.2,0-2.2,0.2-2.9,0.7s-1.1,1.2-1.1,2.1v0.1c0,0.8,0.3,1.4,0.9,1.8
				c0.6,0.4,1.3,0.6,2.2,0.6c1.3,0,2.4-0.3,3.2-1c0.8-0.7,1.2-1.5,1.2-2.5L139.1,196L139.1,196z"/>
			<path class="st9" d="M175.8,204.1v-11.2c0-1.3-0.3-2.4-0.9-3c-0.6-0.7-1.4-1-2.5-1s-1.9,0.3-2.5,1c-0.6,0.7-0.9,1.7-0.9,3v11.2
				h-5.7v-11.2c0-1.3-0.3-2.4-0.9-3c-0.6-0.7-1.4-1-2.5-1s-1.9,0.3-2.5,1c-0.6,0.7-0.9,1.7-0.9,3v11.2h-5.7V184h5.7v2.9
				c0.3-0.4,0.7-0.8,1.1-1.2c0.4-0.4,0.8-0.7,1.3-1c0.5-0.3,1-0.5,1.6-0.7c0.6-0.2,1.2-0.3,2-0.3c1.3,0,2.5,0.3,3.4,0.8
				c1,0.5,1.7,1.3,2.2,2.4c0.9-1.1,1.8-1.9,2.9-2.4c1.1-0.5,2.3-0.8,3.7-0.8c2.1,0,3.8,0.6,5,1.9c1.2,1.3,1.8,3.1,1.8,5.5v13.1
				H175.8L175.8,204.1z"/>
			<path class="st9" d="M200.3,204.1v-2.9c-0.3,0.4-0.7,0.8-1.1,1.2c-0.4,0.4-0.8,0.7-1.3,1c-0.5,0.3-1,0.5-1.6,0.7
				c-0.6,0.2-1.2,0.3-1.9,0.3c-2.2,0-3.8-0.7-5-2c-1.2-1.3-1.8-3.1-1.8-5.5v-13h5.7v11.2c0,1.3,0.3,2.4,0.9,3c0.6,0.7,1.5,1,2.5,1
				c1.1,0,2-0.3,2.6-1c0.6-0.7,0.9-1.7,0.9-3V184h5.7v20.1L200.3,204.1L200.3,204.1z"/>
			<path class="st9" d="M226.7,200.9c-0.4,0.8-0.9,1.5-1.6,2s-1.5,0.9-2.5,1.2c-0.9,0.3-1.9,0.4-3,0.4c-1.4,0-2.9-0.2-4.4-0.7
				c-1.5-0.5-2.9-1.3-4.2-2.3l2.4-3.7c1.1,0.8,2.2,1.4,3.3,1.8s2.1,0.6,3.1,0.6c0.8,0,1.4-0.1,1.8-0.4c0.4-0.3,0.6-0.6,0.6-1.1v-0.1
				c0-0.3-0.1-0.6-0.3-0.8c-0.2-0.2-0.5-0.4-0.9-0.6c-0.4-0.2-0.8-0.3-1.3-0.5c-0.5-0.1-1-0.3-1.6-0.5c-0.7-0.2-1.4-0.4-2.1-0.7
				c-0.7-0.3-1.3-0.7-1.9-1.1c-0.6-0.5-1-1-1.4-1.7c-0.4-0.7-0.5-1.5-0.5-2.5v-0.1c0-1,0.2-1.9,0.6-2.7c0.4-0.8,0.9-1.5,1.6-2
				s1.4-1,2.3-1.2c0.9-0.3,1.8-0.4,2.9-0.4c1.3,0,2.6,0.2,3.9,0.6c1.3,0.4,2.5,1,3.6,1.7l-2.2,3.9c-1-0.6-2-1-2.9-1.4
				c-0.9-0.3-1.8-0.5-2.5-0.5c-0.7,0-1.2,0.1-1.6,0.4c-0.3,0.3-0.5,0.6-0.5,1v0.1c0,0.3,0.1,0.5,0.3,0.7c0.2,0.2,0.5,0.4,0.9,0.6
				c0.4,0.2,0.8,0.4,1.3,0.5c0.5,0.2,1,0.3,1.5,0.5c0.7,0.2,1.4,0.5,2.1,0.8c0.7,0.3,1.4,0.7,1.9,1.1s1.1,1,1.4,1.6
				c0.4,0.7,0.6,1.4,0.6,2.4v0.1C227.2,199.1,227,200.1,226.7,200.9z"/>
		</g>
		<g>
			<path class="st9" d="M140.8,222.3c-0.7,0.3-1.5,0.5-2.5,0.5c-0.8,0-1.5-0.1-2.1-0.4c-0.7-0.3-1.2-0.6-1.7-1.1
				c-0.5-0.5-0.8-1-1.1-1.6c-0.3-0.6-0.4-1.3-0.4-2.1v0c0-0.7,0.1-1.4,0.4-2c0.3-0.6,0.6-1.2,1.1-1.7c0.5-0.5,1-0.9,1.7-1.1
				c0.6-0.3,1.3-0.4,2.1-0.4c0.5,0,0.9,0,1.2,0.1c0.4,0.1,0.7,0.1,1,0.3c0.3,0.1,0.6,0.3,0.9,0.4c0.3,0.2,0.5,0.4,0.8,0.6l-1.4,1.7
				c-0.2-0.2-0.4-0.3-0.6-0.4c-0.2-0.1-0.4-0.2-0.6-0.3c-0.2-0.1-0.4-0.1-0.7-0.2c-0.2-0.1-0.5-0.1-0.8-0.1c-0.4,0-0.8,0.1-1.1,0.3
				s-0.7,0.4-0.9,0.7c-0.3,0.3-0.5,0.6-0.6,1s-0.2,0.8-0.2,1.2v0c0,0.5,0.1,0.9,0.2,1.3c0.1,0.4,0.4,0.7,0.6,1
				c0.3,0.3,0.6,0.5,1,0.7c0.4,0.2,0.8,0.2,1.2,0.2c0.8,0,1.5-0.2,2.1-0.6v-1.5h-2.2v-1.9h4.4v4.4
				C142.1,221.6,141.5,222,140.8,222.3z"/>
			<path class="st9" d="M153.7,222.6l-2.2-3.2h-1.7v3.2h-2.2v-10.1h4.6c1.2,0,2.1,0.3,2.8,0.9c0.7,0.6,1,1.4,1,2.4v0
				c0,0.8-0.2,1.5-0.6,2c-0.4,0.5-0.9,0.9-1.6,1.1l2.5,3.6H153.7z M153.8,216c0-0.5-0.1-0.8-0.5-1.1c-0.3-0.2-0.7-0.4-1.3-0.4h-2.2
				v2.9h2.2c0.5,0,1-0.1,1.3-0.4C153.6,216.8,153.8,216.4,153.8,216L153.8,216L153.8,216z"/>
			<path class="st9" d="M170.8,219.6c-0.3,0.6-0.6,1.2-1.1,1.7c-0.5,0.5-1,0.9-1.7,1.1s-1.4,0.4-2.1,0.4s-1.5-0.1-2.1-0.4
				s-1.2-0.6-1.7-1.1c-0.5-0.5-0.8-1-1.1-1.6c-0.3-0.6-0.4-1.3-0.4-2v0c0-0.7,0.1-1.4,0.4-2c0.3-0.6,0.6-1.2,1.1-1.7
				c0.5-0.5,1-0.9,1.7-1.1c0.7-0.3,1.4-0.4,2.1-0.4s1.5,0.1,2.1,0.4c0.7,0.3,1.2,0.6,1.7,1.1c0.5,0.5,0.8,1,1.1,1.6
				c0.3,0.6,0.4,1.3,0.4,2v0C171.2,218.3,171,218.9,170.8,219.6z M168.9,217.6c0-0.4-0.1-0.8-0.2-1.2s-0.4-0.7-0.6-1
				c-0.3-0.3-0.6-0.5-1-0.7c-0.4-0.2-0.8-0.3-1.2-0.3c-0.5,0-0.9,0.1-1.2,0.2c-0.4,0.2-0.7,0.4-0.9,0.7c-0.3,0.3-0.5,0.6-0.6,1
				c-0.1,0.4-0.2,0.8-0.2,1.2v0c0,0.4,0.1,0.8,0.2,1.2c0.1,0.4,0.4,0.7,0.6,1c0.3,0.3,0.6,0.5,1,0.7c0.4,0.2,0.8,0.3,1.2,0.3
				c0.4,0,0.9-0.1,1.2-0.2c0.4-0.2,0.7-0.4,1-0.7s0.5-0.6,0.6-1S168.9,218,168.9,217.6L168.9,217.6L168.9,217.6z"/>
			<path class="st9" d="M184.3,220.2c-0.2,0.6-0.5,1-0.9,1.4c-0.4,0.4-0.9,0.7-1.4,0.9c-0.5,0.2-1.2,0.3-1.8,0.3
				c-1.3,0-2.4-0.4-3.2-1.1c-0.8-0.7-1.2-1.9-1.2-3.3v-5.8h2.2v5.7c0,0.8,0.2,1.5,0.6,1.9c0.4,0.4,0.9,0.6,1.6,0.6
				c0.7,0,1.2-0.2,1.6-0.6c0.4-0.4,0.6-1,0.6-1.8v-5.8h2.2v5.7C184.6,219,184.6,219.6,184.3,220.2z"/>
			<path class="st9" d="M197.5,217.6c-0.2,0.4-0.5,0.8-0.9,1.1c-0.4,0.3-0.8,0.5-1.3,0.7s-1,0.2-1.6,0.2H192v3h-2.2v-10.1h4.1
				c0.6,0,1.1,0.1,1.6,0.3c0.5,0.2,0.9,0.4,1.2,0.7c0.3,0.3,0.6,0.7,0.8,1.1c0.2,0.4,0.3,0.9,0.3,1.4v0
				C197.8,216.6,197.7,217.1,197.5,217.6z M195.5,216c0-0.5-0.2-0.9-0.5-1.1c-0.3-0.3-0.8-0.4-1.3-0.4H192v3.1h1.8
				c0.6,0,1-0.1,1.3-0.4C195.4,216.9,195.5,216.5,195.5,216L195.5,216L195.5,216z"/>
		</g>
	</g>
</g>
</svg>
