<?xml version="1.0" encoding="UTF-8"?>
<svg width="100px" height="100px" viewBox="0 0 100 100" version="1.1" xmlns="http://www.w3.org/2000/svg" xmlns:xlink="http://www.w3.org/1999/xlink">
    <!-- Generator: Sketch 55.2 (78181) - https://sketchapp.com -->
    <title>Artboard</title>
    <desc>Created with Sketch.</desc>
    <g id="Artboard" stroke="none" stroke-width="1" fill="none" fill-rule="evenodd">
        <g id="basketball-svgrepo-com" fill="#F5F5F5" fill-rule="nonzero">
            <path d="M85.3552734,14.6447266 C75.9117188,5.20078125 63.3554688,0 50,0 C36.6445312,0 24.0882812,5.20078125 14.6447266,14.6447266 C5.20097656,24.0884766 0,36.6447266 0,50 C0,63.3552734 5.20078125,75.9117188 14.6447266,85.3552734 C24.0884766,94.7990234 36.6445312,100 50,100 C63.3554688,100 75.9117188,94.7992188 85.3552734,85.3552734 C94.7990234,75.9115234 100,63.3552734 100,50 C100,36.6447266 94.7992188,24.0882812 85.3552734,14.6447266 Z M73.965625,13.2642578 C81.4644531,18.1728516 87.3759766,25.3121094 90.7498047,33.7330078 C81.9201172,27.6175781 72.6091797,23.6326172 62.9693359,21.8539062 C64.0611328,18.5146484 66.1121094,16.0914062 69.0882813,14.6326172 C71.0408203,13.6757812 72.9300781,13.3666016 73.965625,13.2642578 Z M49.8224609,6.12460937 C49.8816406,6.12441406 49.940625,6.12226562 50,6.12226562 C55.7230469,6.12226562 61.1929687,7.22519531 66.2105469,9.22695312 C62.7490234,10.9708984 58.6273437,14.3869141 56.8289062,21.0208984 C53.5552734,20.7353516 50.2521484,20.6953125 46.9292969,20.9033203 C47.8601562,14.0576172 49.1015625,8.83417969 49.8224609,6.12460937 Z M43.3685547,6.62304687 C42.5404297,10.0083984 41.4539062,15.1738281 40.6578125,21.5867187 C37.6058594,22.0583984 34.5423828,22.7333984 31.475,23.6144531 C31.3308594,22.2554687 31.1197266,21.0101563 30.8740234,19.8898438 C30.134375,16.5162109 29.009375,13.85 28.0591797,12.0136719 C32.6949219,9.32558594 37.8650391,7.46074219 43.3685547,6.62304687 Z M22.9458984,15.4783203 C23.6443359,16.9402344 24.4345703,18.9787109 24.9595703,21.5097656 C25.2380859,22.8527344 25.4212891,24.2113281 25.5105469,25.5839844 C18.8380859,28.0753906 13.3058594,31.1167969 9.27109375,33.6818359 C12.1691406,26.4744141 16.9253906,20.2070312 22.9458984,15.4783203 Z M14.1529297,75.2744141 C9.096875,68.1244141 6.12246094,59.4035156 6.12246094,50 C6.12246094,47.6203125 6.315625,45.2855469 6.68183594,43.0078125 C8.91855469,41.2279297 15.6332031,36.2394531 25.2119141,32.2818359 C24.6087891,36.2859375 23.2527344,40.3859375 21.1447266,44.5519531 C15.0208984,56.6552734 13.8929688,67.6826172 14.1529297,75.2744141 Z M50,93.8775391 C39.015625,93.8775391 28.9619141,89.8199219 21.2570313,83.1255859 C20.4341797,79.5339844 17.8509766,64.6236328 26.6078125,47.3162109 C29.8984375,40.8126953 31.2570313,34.9423828 31.5892578,29.9707031 C32.0898438,29.8146484 32.5962891,29.6625 33.1076172,29.5150391 C35.4261719,28.8470703 37.7298828,28.3064453 40.0181641,27.890625 C39.8617188,29.8732422 39.7402344,31.9380859 39.6667969,34.0763672 C39.2966797,44.8453125 40.2185547,55.2078125 42.4072266,64.8761719 C44.7771484,75.3462891 48.6462891,85.0195312 53.9265625,93.7 C52.6326172,93.8150391 51.3234375,93.8775391 50,93.8775391 Z M78.60625,83.2429688 C73.4597656,87.6779297 67.2755859,90.9386719 60.4734375,92.6109375 C47.4460938,72.5460938 45.2667969,50.0230469 45.7794922,34.4679688 C45.8646484,31.8896484 46.0244141,29.4146484 46.2347656,27.0667969 C49.534375,26.7943359 52.7996094,26.7898437 56.0285156,27.053125 C56.1011719,35.6082031 61.2412109,43.26875 65.9441406,49.1806641 C67.3056641,50.8917969 68.8115234,52.5164063 70.2677734,54.0871094 C73.6699219,57.7570313 76.8835938,61.2236328 78.21875,65.5554688 C79.9373047,71.1308594 79.334375,78.10625 78.60625,83.2429688 Z M84.0697266,63.7521484 C82.3232422,58.0853516 78.4773437,53.9367188 74.7578125,49.9246094 C73.3154297,48.36875 71.9529297,46.8990234 70.7353516,45.36875 C66.8599609,40.4974609 62.621875,34.3167969 62.1904297,27.8902344 C73.0595703,29.9611328 83.4871094,35.1521484 93.3871094,43.4439453 C93.7091797,45.5833984 93.8773437,47.7722656 93.8773437,50 C93.8773437,59.6535156 90.7412109,68.5869141 85.4376953,75.8404297 C85.5662109,71.8171875 85.2660156,67.6330078 84.0697266,63.7521484 Z" id="Shape"></path>
        </g>
    </g>
</svg>